Artista: Rita Lee

Dischi 1

Tracce 14

Titolo: Aqui ali em qualquer lugar

Genere: Rock

Data di uscita: 17 Febbraio 2001

Casa discografica: Deckdisc

Durata: 39:39

Codec: reference libFLAC 1.2.1 20070917

Hz:44100HZ / 16Bit

Channel: Stereo

Average Bitrate 59%

Quality: Lossless

Total Size: 236,21MB

Included : NFO, MD5, PLS, M3U, LOG, PAR, CUE

Covers : Front 300X300

1 A hard day' s night (3:40)
(McCartney, Lennon)
2 With a little help from my friends (2:45)
(McCartney, Lennon)
3 Pra você eu digo sim (If I fell) (2:40)
(McCartney, Lennon, Rita Lee)
4 All my loving (3:05)
(McCartney, Lennon)
5 Minha vida (In my life) (2:24)
(McCartney, Lennon, Rita Lee)
6 She loves you (2:38)
(McCartney, Lennon)
7 Michelle (2:42)
(McCartney, Lennon)
8 Aqui, ali, em qualquer lugar (Here, there and everywhere) (2:29)
(McCartney, Lennon, Rita Lee)
9 I want to hold your hand (2:18)
(McCartney, Lennon)
10 Tudo por amor (Can' t buy me love) (2:38)
(McCartney, Lennon, Rita Lee)
11 Lucy in the sky with diamonds (4:41)
(McCartney, Lennon)
12 Here, there and everywhere (2:27)
(McCartney, Lennon)
13 In my life (2:23)
(McCartney, Lennon)
14 If I fell (2:42)
(McCartney, Lennon)

Aqui alì em qualquer lugar" è un tuffo nel mondo più classico e apollineo che si possa immaginare, un viaggio nelle origini del pop moderno che farebbe tremare le vene ai polsi di chiunque. Rileggere i Beatles non è cosa facile, neanche per chi ha introdotto lo yé-yè e le sperimentazioni hippie in Brasile, ma la cantante paulista lo fa con uno charme e una raffinatezza stilistica indiscutibili, concedendosi il vezzo di tradurre in portoghese quattro brani e, last but not least, piazzando in vetta alle classifiche il trascurato gioiellino "If I Fell" (in brasiliano "Pra voce eu digo sim"). Ed è subito capolavoro. Non per nulla Rita si sceglie come compagni di viaggio, oltre al marito Roberto de Carvalho, gente come Joao Donato al piano e Toninho Ferragutti all'acordeon. Di fronte a un progetto così sistematico, ci si chiede quale possa essere la chiave di lettura che getti nuova luce sul repertorio dei Fab Four. E' presto detto: né filologia pura né stravolgimento etnico, piuttosto una sottile ricerca espressiva che faccia emergere le componenti armoniche e ritmiche più affini all'anima brasiliana, traslando più che sostituendo, rivivendo più che imitando. Il gioco, di ricercatissimo equilibrio formale, riesce quasi sempre, e incanta. Tra i capolavori, la languida inflessione bossanova di "All my loving", la coloritura delicatamente forrò di "I want to hold your hand" e la dolcezza della già citata ballad "Pra voce eu digo sim", che pare uscita dalla penna di un Roberto Carlos (in giornata ispirata). Miracolosamente, perfino un classico della controcultura lisergica come "Lucy in the sky with diamonds", quanto di apparentemente più lontano dal paese del samba, acquista qui nuove fantasiose tinte sincopate, e una "credibilità" e "omogeneità" col percorso sonoro che stupiscono e deliziano.

RITA LEE


Ecco uno stupendo esempio di artista che ha fatto la storia della MPB e rifiuta di riposare sugli allori, ripetendosi o rifugiandosi nel passato. Rita Lee ha grinta e classe da vendere e a chi la supplica di ritornare sui suoi passi per far rivivere la leggenda dei Mutantes (in America e in Inghilterra c'è gente che ucciderebbe per le copie originali e siamo praticamente in presenza di un culto) lei risponde inanellando instancabilmente una serie di perle musicali.

lossless FLAC

Exact Audio Copy V1.0 beta 1 from 15. November 2010

EAC extraction logfile from 22. August 2011, 21:36

Rita Lee / Aqui, Ali, Em Qualquer Lugar

Used drive : HL-DT-STDVDRAM GSA-T40N Adapter: 0 ID: 0

Read mode : Secure
Utilize accurate stream : Yes
Defeat audio cache : No
Make use of C2 pointers : Yes

Read offset correction : 667
Overread into Lead-In and Lead-Out : No
Fill up missing offset samples with silence : Yes
Delete leading and trailing silent blocks : No
Null samples used in CRC calculations : No
Used interface : Native Win32 interface for Win NT & 2000

Used output format : User Defined Encoder
Selected bitrate : 768 kBit/s
Quality : High
Add ID3 tag : No
Command line compressor : c:\Users\leomarco\Contacts\Desktop\Exact Audio Copy\FLAC\FLAC.EXE
Additional command line options : -6 -V -T "ARTIST=%a" -T "TITLE=%t" -T "ALBUM=%g" -T "DATE=%y" -T "TRACKNUMBER=%n" -T "GENRE=%m" -T "COMMENT=%e" %j--picture="%i"%j %s -o %d


TOC of the extracted CD

Track | Start | Length | Start sector | End sector
---------------------------------------------------------
1 | 0:00.00 | 3:40.44 | 0 | 16543
2 | 3:40.44 | 2:45.72 | 16544 | 28990
3 | 6:26.41 | 2:40.35 | 28991 | 41025
4 | 9:07.01 | 3:05.55 | 41026 | 54955
5 | 12:12.56 | 2:24.48 | 54956 | 65803
6 | 14:37.29 | 2:38.12 | 65804 | 77665
7 | 17:15.41 | 2:42.22 | 77666 | 89837
8 | 19:57.63 | 2:29.10 | 89838 | 101022
9 | 22:26.73 | 2:18.23 | 101023 | 111395
10 | 24:45.21 | 2:38.61 | 111396 | 123306
11 | 27:24.07 | 4:41.03 | 123307 | 144384
12 | 32:05.10 | 2:27.63 | 144385 | 155472
13 | 34:32.73 | 2:23.67 | 155473 | 166264
14 | 36:56.65 | 2:42.12 | 166265 | 178426


Range status and errors

Selected range

Filename C:\Users\leomarco\Contacts\Desktop\Rita Lee - Aqui, Ali, Em Qualquer Lugar.wav

Peak level 98.8 %
Extraction speed 0.8 X
Range quality 99.9 %
Test CRC 512C5D6A
Copy CRC 512C5D6A
Copy OK

No errors occurred

End of status report

==== Log checksum 2515810646ADF712598B516DD18C54BC17C006064745227AB3C283601125BFDE ====
Per i primi 10: 24 su 24: 20/30 Kb/s